<?xml version="1.0" encoding="UTF-8" standalone="no"?>
<!-- Created with Inkscape (http://www.inkscape.org/) -->

<svg
   xmlns:dc="http://purl.org/dc/elements/1.1/"
   xmlns:cc="http://creativecommons.org/ns#"
   xmlns:rdf="http://www.w3.org/1999/02/22-rdf-syntax-ns#"
   xmlns:svg="http://www.w3.org/2000/svg"
   xmlns="http://www.w3.org/2000/svg"
   xmlns:sodipodi="http://sodipodi.sourceforge.net/DTD/sodipodi-0.dtd"
   xmlns:inkscape="http://www.inkscape.org/namespaces/inkscape"
   id="svg3376"
   version="1.1"
   inkscape:version="0.91 r13725"
   width="335.625"
   height="345"
   viewBox="0 0 335.625 345"
   sodipodi:docname="ComicCharacter17.svg">
  <metadata
     id="metadata3382">
    <rdf:RDF>
      <cc:Work
         rdf:about="">
        <dc:format>image/svg+xml</dc:format>
        <dc:type
           rdf:resource="http://purl.org/dc/dcmitype/StillImage" />
        <dc:title></dc:title>
      </cc:Work>
    </rdf:RDF>
  </metadata>
  <defs
     id="defs3380" />
  <sodipodi:namedview
     pagecolor="#ffffff"
     bordercolor="#666666"
     borderopacity="1"
     objecttolerance="10"
     gridtolerance="10"
     guidetolerance="10"
     inkscape:pageopacity="0"
     inkscape:pageshadow="2"
     inkscape:window-width="1600"
     inkscape:window-height="837"
     id="namedview3378"
     showgrid="false"
     inkscape:zoom="1.942029"
     inkscape:cx="167.8125"
     inkscape:cy="172.5"
     inkscape:window-x="-8"
     inkscape:window-y="-8"
     inkscape:window-maximized="1"
     inkscape:current-layer="svg3376" />
  <path
     style="fill:#000000"
     d="m 269.37339,344.00881 c -3.18057,-0.41439 -7.39932,-1.20228 -9.375,-1.75089 -1.97567,-0.5486 -6.12339,-1.04876 -9.21714,-1.11144 -3.09375,-0.0627 -4.88672,-0.30692 -3.98438,-0.54273 0.90235,-0.2358 1.64063,-0.86481 1.64063,-1.39779 0,-0.53299 -0.71538,-0.69455 -1.58973,-0.35903 -3.39195,1.30162 -15.12345,2.66201 -16.80019,1.94817 -0.97148,-0.4136 -2.59856,-0.79685 -3.61573,-0.85168 -2.60862,-0.14059 -4.09808,-8.45274 -1.94163,-10.83557 0.796,-0.87958 1.41872,-2.40977 1.38383,-3.40042 -0.0566,-1.60634 -0.1735,-1.57299 -1.08076,0.30819 -1.47091,3.04989 -2.44549,2.60182 -3.05872,-1.40625 -0.29584,-1.93359 -0.93023,-5.625 -1.40976,-8.20312 -1.09435,-5.88365 -1.38569,-22.41132 -0.46816,-26.55882 0.37978,-1.71673 1.25067,-3.33628 1.93531,-3.599 0.91158,-0.3498 0.98512,-0.89454 0.27476,-2.03493 -0.68364,-1.0975 -0.53905,-4.4472 0.48974,-11.34601 0.80288,-5.38382 1.23631,-10.01222 0.96318,-10.28535 -0.72459,-0.72459 -2.13211,1.76342 -3.22104,5.69375 -0.52301,1.88768 -3.22854,6.95018 -6.01231,11.25 -2.78377,4.29983 -6.64958,10.27855 -8.59069,13.28606 -7.89826,12.23738 -13.62277,18.9195 -21.9508,25.6228 -4.71879,3.79817 -9.91756,7.61714 -11.55283,8.48658 l -2.97322,1.58082 6.09375,1.28166 c 8.513,1.79049 8.60412,1.83663 8.26888,4.18667 -0.43997,3.08411 -7.22366,3.83072 -27.48763,3.02525 -21.04169,-0.83638 -19.38595,-0.83726 -32.8125,0.0174 -7.064,0.4497 -14.3895,0.32968 -19.6875,-0.32257 -4.640625,-0.57131 -13.394531,-1.32004 -19.453125,-1.66383 C 78.082031,334.68303 73.125,334.0893 73.125,333.70742 c 0,-1.32512 2.988177,-1.82844 7.809411,-1.31538 2.665761,0.28369 10.331214,0.67741 17.034339,0.87494 6.70313,0.19753 14.19141,0.74201 16.64063,1.20996 5.31537,1.01554 5.87657,-0.0776 0.9375,-1.82611 -2.30015,-0.81429 -8.21549,-1.24661 -17.10938,-1.25043 -14.640084,-0.007 -40.683493,-1.19717 -43.359375,-1.98265 -2.602921,-0.76407 -1.912124,-2.21656 1.40625,-2.95681 2.095903,-0.46755 -0.528983,-0.83205 -8.410025,-1.16784 -12.240468,-0.52154 -16.294845,-1.91056 -10.4676,-3.58617 1.745975,-0.50206 2.541687,-0.95856 1.76825,-1.01444 -0.773438,-0.0559 -4.633093,-0.28546 -8.577012,-0.51015 -5.984833,-0.34097 -7.581729,-0.78941 -9.655687,-2.71148 -1.366709,-1.26663 -2.091561,-2.54607 -1.610784,-2.84321 1.611789,-0.99614 39.474208,-0.47797 40.108857,0.54892 1.441444,2.3323 -6.16753,3.50793 -12.302813,1.90085 -1.543471,-0.40431 -4.493811,-0.4967 -6.556311,-0.20534 -6.676281,0.94315 -1.012676,1.79753 18.176172,2.74194 10.329875,0.50841 18.605998,1.3244 19.171875,1.89028 0.702604,0.7026 0.319585,1.01917 -1.301172,1.07543 -4.180418,0.14511 7.916863,2.65254 12.992828,2.69305 3.070514,0.0245 4.755238,0.39886 4.397797,0.97722 -0.318675,0.51563 -2.13654,0.94396 -4.039703,0.95185 -1.903164,0.007 -4.09311,0.46239 -4.866547,1.00998 -1.019853,0.72205 0.728371,0.87062 6.362459,0.5407 4.272794,-0.25021 8.339931,-0.92901 9.038091,-1.50842 1.39082,-1.15429 3.16868,-1.21052 13.66195,-0.43213 7.33673,0.54423 10.51253,1.88342 6.7807,2.85931 -2.85348,0.74622 -2.64702,2.20371 0.31218,2.20371 1.32296,0 3.26153,0.45819 4.30793,1.01821 2.60662,1.39503 13.48093,-0.54328 16.53778,-2.9478 1.52241,-1.19753 3.77655,-1.82041 6.5879,-1.82041 3.94206,0 4.65541,-0.39416 9.19429,-5.08029 2.70636,-2.79417 6.01714,-7.2441 7.35729,-9.88876 3.86646,-7.63009 7.14211,-23.89205 6.96526,-34.57894 -0.0823,-4.97517 0.16025,-10.62779 0.53908,-12.56138 0.91703,-4.68078 -0.49486,-4.42409 -2.71125,0.49293 -0.98181,2.17811 -4.83779,6.93863 -8.56884,10.57895 -3.73105,3.64031 -6.93812,7.42042 -7.12681,8.40022 -0.21436,1.11308 -1.42688,2.00313 -3.23176,2.37226 -1.58877,0.32494 -3.48466,0.964 -4.21308,1.42013 -0.72843,0.45613 -2.0627,0.70788 -2.96505,0.55942 -0.90234,-0.14844 -1.64062,0.17849 -1.64062,0.72653 0,0.54803 -1.03322,0.99643 -2.29604,0.99643 -2.68097,0 -7.07896,-5.15138 -7.07896,-8.29162 0,-2.46728 2.41732,-2.69581 3.04696,-0.28806 0.64352,2.46081 5.40996,3.15566 10.25052,1.49431 4.91428,-1.68666 16.67046,-12.65133 19.48972,-18.17753 2.1037,-4.1236 1.67231,-4.5468 -2.44566,-2.39913 -3.16556,1.65096 -7.61389,1.81024 -11.29613,0.4045 -2.4325,-0.92864 -2.50971,-1.10263 -0.98596,-2.22192 1.46941,-1.07938 1.20886,-1.28148 -2.34375,-1.81791 -12.30928,-1.85863 -24.57511,-10.55731 -28.82851,-20.4446 -2.17812,-5.06317 -7.69666,-13.06577 -11.11409,-16.11685 -1.42895,-1.27578 -1.73989,-2.18537 -1.12167,-3.28125 0.69925,-1.23952 0.0535,-1.79123 -3.53868,-3.02352 -3.8143,-1.30846 -4.360756,-1.81909 -4.142,-3.87042 0.18187,-1.70551 -0.274678,-2.50083 -1.640625,-2.85803 C 96.539578,210.16955 95.772422,208.125 97.5,208.125 c 1.954162,0 0.824653,-1.69427 -1.875,-2.8125 -2.796941,-1.15853 -3.665281,-3.11229 -1.875,-4.21875 1.774613,-1.09677 0.929897,-2.4426 -2.408643,-3.83753 -3.73904,-1.56227 -3.848134,-3.51366 -0.22067,-3.9472 1.921676,-0.22968 3.363685,0.85801 7.457391,5.625 5.330852,6.2076 10.470862,13.53843 15.811192,22.55035 2.36774,3.99563 3.73534,5.39063 5.28473,5.39063 2.71945,0 3.84755,1.87241 1.81382,3.01055 -1.38524,0.77522 -1.07295,1.40372 2.4465,4.92383 2.21893,2.21935 6.52575,6.84608 9.57071,10.28161 4.44919,5.0199 7.03982,6.97418 13.19347,9.95272 8.93826,4.32636 11.92197,4.5532 17.92277,1.36254 2.42439,-1.28906 5.39457,-2.34375 6.60039,-2.34375 1.95749,0 5.92507,-0.94951 24.80602,-5.93654 2.88554,-0.76215 7.51885,-2.53726 10.29626,-3.94467 4.11941,-2.08748 6.59254,-2.62159 13.42302,-2.89895 8.69579,-0.35311 10.3571,-0.72622 7.40511,-1.66315 -0.95658,-0.30361 -2.1973,-1.76556 -2.75715,-3.24878 l -1.01792,-2.69677 5.8481,0.46943 c 5.29233,0.42482 6.40064,0.17493 11.66224,-2.62948 3.51695,-1.87451 8.66601,-5.98544 13.03213,-10.40465 4.42092,-4.47466 8.10287,-7.40687 9.50146,-7.56671 3.18924,-0.3645 3.56938,2.382 0.52187,3.77053 -1.30916,0.5965 -2.3803,1.7264 -2.3803,2.51089 0,2.53177 3.58419,1.51863 6.04604,-1.70902 2.55058,-3.34398 3.09082,-7.04027 1.29189,-8.8392 -0.75967,-0.75967 -0.82081,-1.75949 -0.1978,-3.23437 2.42858,-5.74931 -1.78626,-8.67603 -11.63913,-8.08203 -4.2691,0.25737 -5.34475,0.0392 -5.34475,-1.08403 0,-1.13304 1.41157,-1.39719 7.26562,-1.35963 8.20004,0.0526 8.93767,-0.75788 5.07881,-5.58042 -2.14119,-2.67591 -2.32234,-2.71868 -10.85949,-2.56383 -6.6352,0.12035 -8.59013,-0.12216 -8.29241,-1.0287 0.21427,-0.6524 1.48694,-1.31675 2.82818,-1.47633 2.19255,-0.26088 9.13554,-7.20843 9.13554,-9.14154 0,-0.37326 1.94843,-2.9593 4.32983,-5.74677 4.86772,-5.69772 4.85699,-7.42442 -0.0231,-3.70226 -1.78431,1.36096 -3.64046,2.47448 -4.12477,2.47448 -0.48431,0 -5.15308,4.16632 -10.37505,9.25848 -8.18432,7.98091 -9.49445,9.67856 -9.49445,12.30282 0,2.09618 -1.28246,4.84155 -4.11773,8.81483 -2.26476,3.17378 -5.12991,8.1707 -6.36701,11.10428 -1.23709,2.93357 -3.2298,6.4615 -4.42825,7.83984 l -2.17899,2.50606 1.66499,5.4991 c 0.91574,3.0245 1.3635,5.80058 0.99501,6.16906 -1.69285,1.69287 -6.5199,-11.12202 -5.6615,-15.03023 0.60618,-2.75994 0.56718,-2.79344 -2.53606,-2.17842 -1.73344,0.34355 -4.83921,1.82411 -6.90171,3.29016 -7.65997,5.44479 -8.62042,5.67374 -26.04078,6.20757 -14.31127,0.43854 -17.06317,0.78123 -22.08853,2.75066 -3.1573,1.23733 -6.98474,3.13565 -8.50542,4.21847 -1.52069,1.08282 -2.99044,1.60381 -3.26612,1.15775 -0.58156,-0.94099 3.8168,-5.23934 6.22898,-6.08732 0.90234,-0.31723 1.64062,-1.03099 1.64062,-1.58617 0,-1.28785 -5.77259,-0.39371 -10.57797,1.63847 -2.52685,1.0686 -3.83618,1.21044 -4.55335,0.49327 -2.08597,-2.08597 6.76666,-5.79351 13.95945,-5.84631 4.83465,-0.0355 3.7247,-2.80383 -4.70819,-11.74265 -1.94497,-2.06165 -4.84429,-6.49066 -6.44295,-9.84222 -2.70851,-5.67835 -2.8981,-6.75276 -2.78122,-15.76129 0.14785,-11.39633 -1.70248,-19.77091 -5.36348,-24.27507 -1.37557,-1.69238 -3.70275,-4.55623 -5.1715,-6.36411 -1.46875,-1.80786 -3.15625,-3.28788 -3.75,-3.28891 -0.59375,-9.4e-4 -3.96641,-1.89948 -7.49481,-4.21875 -3.52839,-2.31929 -7.18918,-4.21687 -8.13508,-4.21687 -0.9459,0 -2.54943,1.05469 -3.56341,2.34375 -2.28164,2.90063 -3.20171,2.98219 -2.81082,0.24913 0.16477,-1.15204 1.65443,-2.94501 3.31034,-3.98437 1.65592,-1.03937 3.02701,-2.20539 3.04688,-2.59116 0.0579,-1.12539 -8.69351,-6.2925 -10.690606,-6.31204 -3.3108,-0.0323 -14.404556,7.35732 -17.881799,11.91133 -2.615102,3.4249 -3.214112,4.92511 -2.771374,6.94088 0.343978,1.56612 0.02061,3.41998 -0.827044,4.74141 -0.765525,1.1934 -2.093019,6.59951 -2.949986,12.01357 -0.856968,5.41406 -1.928357,11.10937 -2.380864,12.65625 -0.884291,3.02291 -2.459557,26.88097 -3.280695,49.6875 -0.516822,14.35439 1.086483,28.63131 4.632397,41.25 2.372567,8.44315 3.098058,9.6888 5.830742,10.01116 3.145627,0.37107 4.082012,2.58156 1.39161,3.28512 -2.269429,0.59347 -2.311643,0.72692 -1.003286,3.1716 0.71306,1.33237 1.972784,1.81337 4.749132,1.81337 2.078257,0 4.690722,0.48813 5.80548,1.08472 1.980893,1.06015 1.984808,1.10115 0.172743,1.80912 -1.01975,0.39841 -3.225184,0.75403 -4.900965,0.79026 -3.700377,0.0801 -3.77083,0.61391 -0.527727,3.99897 1.675389,1.74873 3.480915,2.63424 5.390625,2.64378 1.579312,0.007 3.504289,0.4378 4.277727,0.95532 1.215094,0.81305 1.154194,1.13312 -0.44805,2.35461 -2.542344,1.9382 -0.998559,4.2009 3.781144,5.54195 2.451146,0.68772 3.795436,1.65127 4.018666,2.88047 0.4631,2.55012 3.87693,6.0658 5.89007,6.0658 0.91575,0 2.00237,0.57123 2.41471,1.26939 1.13005,1.91338 4.99105,3.72228 9.18721,4.30426 2.47718,0.34357 3.75,0.99741 3.75,1.92635 0,2.09893 -7.56576,1.35214 -10.98781,-1.08458 -2.79778,-1.99219 -8.68063,-3.77823 -9.55727,-2.90159 -0.26549,0.26549 -0.0803,1.23467 0.41162,2.15375 0.76948,1.4378 0.3776,1.75836 -2.80742,2.29646 -3.439695,0.58113 -3.920126,0.37579 -6.786683,-2.90072 -1.696715,-1.93937 -4.681087,-5.00751 -6.631936,-6.8181 -1.950851,-1.81058 -3.347021,-3.8131 -3.102601,-4.45005 0.244419,-0.63694 -0.129033,-1.63399 -0.829893,-2.21565 -1.74676,-1.44968 -8.174941,-12.58219 -10.567333,-18.30082 -4.587572,-10.96584 -11.581797,-63.53729 -9.596491,-72.13116 0.483302,-2.09208 0.889044,-5.54211 0.901649,-7.66673 0.01261,-2.12462 0.846207,-8.66368 1.852449,-14.53125 1.006242,-5.86757 2.096085,-14.46519 2.421872,-19.10581 0.325786,-4.64063 1.624532,-11.8125 2.886101,-15.9375 5.051144,-16.51591 9.218469,-28.3905 11.746078,-33.46988 2.315789,-4.65372 2.588305,-6.04789 2.107383,-10.78125 -0.49241,-4.84646 -0.281026,-5.83252 1.948021,-9.0871 1.375202,-2.00789 3.285654,-6.79317 4.245446,-10.633948 0.959793,-3.840778 2.433059,-7.743441 3.273921,-8.672585 1.889606,-2.08799 5.771357,-2.904106 8.634827,-1.815419 3.49506,1.328825 2.48298,2.61777 -2.29631,2.92444 l -4.45312,0.285742 -0.9375,9.299897 c -0.593878,5.891173 -1.367034,9.441963 -2.109375,9.687493 -0.644531,0.21319 -1.171875,-0.28036 -1.171875,-1.09677 0,-2.34628 -2.548461,-1.72652 -3.175619,0.77229 -0.311512,1.24115 -0.79912,2.86315 -1.083575,3.60443 -0.859143,2.23889 15.497884,15.12899 22.370134,17.62871 9.05848,3.29494 15.63906,6.40037 15.63906,7.3802 0,0.49248 2.49867,2.8181 5.5526,5.16803 l 5.55259,4.27263 1.08261,-3.28033 c 1.45656,-4.4134 3.77533,-4.22819 7.09839,0.56699 1.46641,2.11603 3.64184,4.21826 4.83429,4.67163 2.55671,0.97206 14.63331,1.35063 16.0068,0.50178 0.60217,-0.37217 0.31976,-1.8751 -0.77061,-4.10097 -1.30736,-2.66886 -3.31505,-4.40057 -8.3514,-7.20344 -3.64665,-2.02946 -6.63027,-4.02253 -6.63027,-4.42904 0,-1.16066 -4.87626,-3.39383 -13.04597,-5.97464 -5.96783,-1.88524 -9.44632,-3.82102 -16.95425,-9.43508 -8.40403,-6.28412 -15.84889,-14.14002 -15.91404,-16.79267 -0.0127,-0.5205 -0.89227,-1.489087 -1.95442,-2.152415 -1.42697,-0.89115 -1.85534,-1.990331 -1.64063,-4.209881 0.36831,-3.807548 2.97458,-4.121581 3.40124,-0.409828 0.32838,2.856778 2.04557,2.60024 2.04557,-0.305594 0,-1.00082 0.63281,-1.819672 1.40625,-1.819672 1.63533,0 1.88135,2.899903 0.37391,4.407337 -1.64983,1.649832 -0.0407,6.578433 3.23413,9.905483 10.50091,10.66851 22.37194,18.47082 28.13289,18.49052 2.20852,0.007 2.5489,-0.27867 1.94014,-1.63146 -0.40605,-0.90235 -0.77529,-4.99648 -0.82051,-9.09806 l -0.0822,-7.45744 -3.26417,-1.82081 c -9.06468,-5.056461 -17.21957,-10.466923 -20.77913,-13.786155 -4.33049,-4.038118 -5.87366,-4.523059 -6.79046,-2.133899 -1.03546,2.698356 -2.47183,0.04469 -1.62766,-3.007074 1.30674,-4.724073 0.23879,-10.75489 -2.06202,-11.644398 C 102.38916,72.495788 100.46822,69.069488 98.106,59.0625 93.396909,39.113522 93.037738,33.204065 96.16245,27.085176 c 2.655628,-5.200321 10.08487,-5.779104 16.02488,-1.248436 3.0568,2.331528 3.12517,2.340266 3.12517,0.399338 0,-2.6251 1.31929,-5.005134 6.3197,-11.400951 3.69649,-4.728034 9.9866,-10.147627 11.77757,-10.147627 0.359,0 0.65273,0.6328125 0.65273,1.40625 0,0.7734375 -0.41396,1.40625 -0.91993,1.40625 -1.1717,0 -14.08007,12.136888 -14.08007,13.238557 0,1.495341 1.83851,0.862136 5.77378,-1.988557 4.52354,-3.276838 5.88246,-3.52972 5.21311,-0.970113 -0.32814,1.254805 0.0855,2.022433 1.29691,2.406926 0.97828,0.310497 1.7787,0.971225 1.7787,1.468286 0,0.934451 -0.70089,1.256353 -4.6875,2.152854 -2.78352,0.625955 -8.2259,4.826794 -7.37136,5.689782 0.32857,0.331817 2.01607,-0.261603 3.75,-1.318712 1.73394,-1.057108 3.86599,-1.923591 4.7379,-1.925519 2.28015,-0.0051 3.06316,1.788617 1.05225,2.410418 -4.04865,1.251905 -9.66879,4.201184 -9.66879,5.073893 0,1.297831 0.62515,1.197566 3.24788,-0.520912 2.39296,-1.567926 8.79253,-1.516465 8.00212,0.06435 -0.25781,0.515625 -1.73438,0.937689 -3.28125,0.93792 -2.89111,4.31e-4 -9.84375,3.695999 -9.84375,5.232292 0,1.379865 2.47335,0.993062 3.78934,-0.59261 1.3813,-1.664365 5.71934,-1.470176 6.29461,0.281773 0.25463,0.775466 -0.64216,1.171875 -2.65112,1.171875 -2.88324,0 -2.9578,0.08634 -1.48234,1.716705 C 126.90303,44.117672 126.18887,45 122.60842,45 c -2.20425,0 -2.95752,0.606531 -4.07509,3.28125 -1.0522,2.518252 -1.91991,3.28125 -3.73158,3.28125 -3.03595,0 -3.62051,1.664992 -2.30272,6.558869 0.97742,3.629904 0.35473,6.883684 -0.73077,3.818461 -0.26127,-0.737781 -1.40496,-2.214343 -2.54154,-3.28125 -4.57678,-4.296219 -4.8445,-9.212137 -0.67424,-12.380488 2.85751,-2.170986 4.49841,-1.516584 2.23594,0.891706 -2.79253,2.972505 -2.7315,5.358561 0.071,2.774712 1.16016,-1.069656 2.95313,-2.108777 3.98438,-2.309157 2.40953,-0.468194 2.20487,-4.650427 -0.60073,-12.275711 -2.4282,-6.599532 -5.50536,-9.30964 -10.12908,-8.920866 -2.84379,0.239113 -3.59596,0.82727 -5.153728,4.029974 -2.48746,5.114122 -2.387241,13.141759 0.286762,22.96875 1.192596,4.382812 2.579756,9.583477 3.082596,11.557032 0.73053,2.867272 1.59806,3.874005 4.31749,5.010255 5.59469,2.337609 9.09366,2.559632 11.85234,0.752076 1.37314,-0.899716 2.76211,-1.37035 3.08661,-1.045853 0.79756,0.797563 -2.34382,4.168106 -4.532,4.862608 -1.49648,0.474962 -1.74201,1.444271 -1.6335,6.448534 l 0.12771,5.88955 6.21027,4.543231 c 3.41564,2.498776 9.7962,6.362992 14.17901,8.587147 4.38281,2.22415 8.49609,4.47713 9.14062,5.00662 0.79606,0.65398 1.17188,3.98766 1.17188,10.39516 l 0,9.43244 3.98437,-0.41521 c 2.19141,-0.22835 7.07782,-0.97123 10.85868,-1.65082 5.92755,-1.06545 7.38011,-1.7364 10.54688,-4.87167 4.05956,-4.01921 4.7009,-6.3761 1.73502,-6.3761 -1.06566,0 -3.2805,-0.9993 -4.92188,-2.22066 -1.64137,-1.22136 -4.09498,-2.4826 -5.45244,-2.80275 -1.35746,-0.32015 -4.81681,-3.11896 -7.68743,-6.21958 -6.23191,-6.731206 -8.98634,-7.535418 -10.32123,-3.013488 -0.61266,2.075344 -1.40088,2.984608 -2.4048,2.774068 -1.82802,-0.383359 -1.58882,-4.152821 0.40321,-6.353991 0.76153,-0.841493 1.38461,-2.004996 1.38461,-2.585563 0,-1.372341 -5.84636,-2.455639 -9.40816,-1.743279 -3.50069,0.700137 -3.83092,-1.429657 -0.45984,-2.965627 1.89613,-0.863934 3.6501,-0.618976 9.60937,1.342041 10.98492,3.614802 18.39408,3.468417 28.17445,-0.556651 7.17087,-2.951138 7.87545,-3.077538 9.28694,-1.666051 1.41148,1.411487 1.33845,1.574781 -0.9627,2.15233 -1.36953,0.343732 -2.49006,0.919022 -2.49006,1.278424 0,1.988416 11.2798,13.871857 16.16313,17.028117 5.87875,3.79961 8.25046,4.32946 12.36959,2.76336 2.1086,-0.80169 2.40478,-1.4547 2.40478,-5.30213 0,-4.997129 -2.25519,-8.695548 -9.0718,-14.87732 l -4.1351,-3.75 1.55752,-4.518275 c 1.08989,-3.161679 2.25921,-4.785054 3.89456,-5.406811 2.15989,-0.821188 2.23429,-1.043271 0.98152,-2.930026 -2.63257,-3.964876 -4.35958,-4.285374 -6.96123,-1.291865 -2.05118,2.360135 -2.29295,3.308336 -1.79284,7.03125 0.53476,3.980811 0.47081,4.16688 -0.85353,2.483418 -2.17205,-2.761048 -1.72539,-6.40909 1.28085,-10.461405 5.05343,-6.811844 8.26275,-9.60377 12.28433,-10.686666 l 3.97447,-1.070216 -0.5891,-5.324702 c -0.32401,-2.928586 -0.61088,-5.957515 -0.6375,-6.730952 -0.28008,-8.137998 -5.96703,-18.117883 -13.89568,-24.385109 -2.63255,-2.08092 -4.78647,-4.406494 -4.78647,-5.167942 0,-5.823259 15.03557,9.911988 19.83181,20.754678 1.31573,2.974441 2.0246,7.211531 2.40139,14.353733 l 0.53458,10.133525 -3.99525,4.334338 c -3.10432,3.367781 -4.0584,5.180973 -4.27841,8.130915 -0.20125,2.698287 -1.08561,4.617335 -3.05705,6.633777 l -2.77389,2.8372 4.66879,4.859318 c 8.08132,8.411101 10.439,15.574337 6.77056,20.570637 -2.86101,3.89662 -6.01735,4.81441 -12.58102,3.65824 -5.32525,-0.93803 -12.20901,-4.7859 -12.20901,-6.82458 0,-0.45443 -0.57549,-0.82623 -1.27888,-0.82623 -0.70339,0 -2.00168,1.8926 -2.88508,4.20578 -1.06498,2.7886 -3.47714,5.89887 -7.15862,9.23041 -5.67317,5.13393 -6.80031,7.18881 -3.94318,7.18881 0.88507,0 5.8421,2.07893 11.01562,4.61986 9.19178,4.51446 9.54028,4.60392 15.27514,3.92096 4.28104,-0.50982 6.81731,-0.33348 9.375,0.65184 5.0583,1.94866 10.99942,2.41342 14.51559,1.13553 1.67923,-0.61027 7.14783,-1.44964 12.15243,-1.86525 10.07062,-0.83631 15.86072,-3.01792 20.19357,-7.6086 1.90128,-2.01439 3.44489,-2.72934 5.89286,-2.72934 3.28517,0 12.11428,-2.70962 16.91016,-5.18966 1.36787,-0.70736 7.16963,-1.7764 12.89278,-2.37565 10.30963,-1.07947 10.47131,-1.06562 17.50295,1.49895 3.90345,1.42367 7.32008,2.94914 7.5925,3.38993 0.27242,0.44078 3.36116,0.80143 6.86384,0.80143 10.60078,0 14.90683,4.44744 15.03041,15.52394 0.0752,6.73716 -1.37226,8.35857 -6.79779,7.61492 -2.47577,-0.33934 -4.55869,-0.2019 -4.88259,0.32216 -0.31068,0.50269 -1.48919,0.9274 -2.61892,0.94379 -1.12972,0.0164 -2.87296,0.64922 -3.87385,1.40625 -2.09196,1.58228 -5.76368,1.82076 -6.62311,0.43017 -0.32166,-0.52045 -2.13952,-1.75171 -4.03971,-2.73615 -3.02546,-1.56742 -3.22183,-1.86404 -1.57987,-2.38641 3.97565,-1.26483 6.56163,-2.96623 6.85953,-4.51311 0.17066,-0.88618 -0.24822,-1.77271 -0.93086,-1.97008 -0.68265,-0.19736 -3.08603,-0.86138 -5.34087,-1.4756 -5.45203,-1.48512 -3.84454,-3.23976 2.14518,-2.34155 3.51129,0.52655 4.63399,1.17399 5.73809,3.30909 0.75498,1.45996 1.37268,3.55433 1.37268,4.65415 0,2.94911 2.07377,1.81726 4.0776,-2.22552 2.99577,-6.04406 1.67889,-7.79568 -13.32432,-17.72299 -2.80502,-1.85602 -10.80388,-2.19733 -17.2242,-0.73497 -2.19881,0.50084 -7.16189,1.60576 -11.02908,2.45541 -3.86719,0.84966 -9.03516,2.55637 -11.48438,3.7927 l -4.45312,2.24788 0,7.94039 0,7.94037 3.39574,1.41883 c 4.27984,1.78823 8.81433,1.8099 12.23141,0.0585 4.43541,-2.2734 11.00824,-5.05891 12.49785,-5.29648 2.10348,-0.33547 10.27099,1.14373 10.76956,1.95045 0.23871,0.38623 -2.39136,0.9917 -5.84458,1.3455 -4.50114,0.46115 -7.12104,1.28582 -9.25435,2.91296 -3.76358,2.87063 -9.70481,4.22399 -15.51983,3.53529 -4.42109,-0.52366 -4.5258,-0.47768 -4.5258,1.98704 0,1.96058 0.62706,2.7417 2.8125,3.50354 2.79237,0.97344 3.84772,3.79657 1.875,5.01578 -0.51563,0.31868 -0.9375,1.14731 -0.9375,1.84143 0,0.97266 1.27626,1.14629 5.56644,0.75727 l 5.56644,-0.50475 2.88277,4.54567 c 1.58553,2.5001 3.29702,6.03678 3.80334,7.85927 1.41354,5.08817 1.10361,27.36647 -0.58923,42.3541 -1.58312,14.01621 -1.75638,27.58546 -0.39786,31.15867 0.43508,1.14431 1.08055,5.01294 1.43439,8.59696 0.84353,8.54405 0.95797,9.07293 3.73568,17.26471 1.30517,3.84908 2.37303,8.95167 2.37303,11.33908 0,4.73466 -0.98181,6.06137 -6.5625,8.86785 -1.80469,0.90756 -3.5912,2.1186 -3.97002,2.69117 -2.57343,3.8897 2.72159,11.07407 9.00954,12.2243 1.99829,0.36554 5.16926,1.6811 7.04659,2.92345 1.87732,1.24236 4.77503,2.53117 6.43936,2.86404 1.66431,0.33286 4.92695,2.37542 7.25028,4.53901 3.72356,3.46754 4.22425,4.40457 4.22425,7.90551 0,3.21327 -0.53472,4.46009 -2.80016,6.52926 -4.96441,4.53428 -12.33052,7.63596 -19.35374,8.14935 -3.54192,0.25892 -8.73218,0.88512 -11.53391,1.39158 -5.58955,1.01039 -5.51567,1.01076 -13.8138,-0.0704 z M 281.25,341.19467 c 0,-1.06168 -0.42188,-1.66959 -0.9375,-1.35092 -0.51563,0.31867 -0.9375,1.18732 -0.9375,1.93033 0,0.74301 0.42187,1.35092 0.9375,1.35092 0.51562,0 0.9375,-0.86865 0.9375,-1.93033 z m -12.38078,-2.39844 c -0.29855,-1.6433 0.18441,-1.98655 7.22453,-5.13464 6.02053,-2.69217 10.0033,-5.45748 9.35979,-6.49869 -0.27829,-0.45029 -2.02341,0.10931 -3.87803,1.24357 -5.38897,3.2958 -16.43377,9.09353 -17.32336,9.09353 -1.52555,0 -0.8214,-2.86931 0.82597,-3.36576 3.62351,-1.09195 13.35938,-6.20611 13.35938,-7.01756 0,-0.47667 -0.49323,-0.86668 -1.09607,-0.86668 -1.22015,0 -10.77016,5.17755 -12.96643,7.02977 -2.48331,2.09428 -5.625,2.65401 -5.625,1.00216 0,-0.80819 -0.52734,-1.46297 -1.17188,-1.45508 -1.37835,0.0169 -4.13025,1.62935 -3.48847,2.04405 2.95575,1.90992 7.44314,4.00885 9.75157,4.56117 4.53348,1.08472 5.32246,0.98494 5.028,-0.63585 z m 31.59953,0.57877 c 0.31867,-0.51563 -0.0783,-0.9375 -0.88217,-0.9375 -0.80387,0 -1.46158,0.42187 -1.46158,0.9375 0,0.51562 0.39697,0.9375 0.88217,0.9375 0.48519,0 1.14291,-0.42188 1.46158,-0.9375 z m -18.25964,-3.83716 c 5.14385,-2.74164 10.6959,-7.41284 8.81069,-7.41284 -0.47825,0 -2.94637,1.47656 -5.48469,3.28125 -2.53833,1.80469 -5.06823,3.28403 -5.622,3.28743 -0.55378,0.004 -2.27249,0.84437 -3.81936,1.86882 -4.62568,3.06347 -0.14672,2.31299 6.11536,-1.02466 z m 15.88963,0.10056 c 4.25398,-2.17022 5.38079,-3.56628 3.47021,-4.29944 -0.75544,-0.28989 -2.43355,0.54837 -3.76681,1.88162 -1.32242,1.32243 -2.84547,2.40442 -3.38453,2.40442 -0.53906,0 -0.98011,0.42187 -0.98011,0.9375 0,1.29934 0.49549,1.20111 4.66124,-0.9241 z M 237.1875,335.625 c 0,-0.51563 -0.63281,-0.9375 -1.40625,-0.9375 -0.77344,0 -1.40625,-0.42188 -1.40625,-0.9375 0,-1.04288 -2.79392,-1.24553 -5.07957,-0.36845 -2.42431,0.93029 -1.69437,2.09841 1.56394,2.50276 5.68542,0.70556 6.32813,0.67922 6.32813,-0.25931 z m 56.78552,-2.32523 c 1.51015,-1.20681 2.47274,-2.46986 2.13908,-2.80677 -0.63122,-0.63735 -8.20155,4.19817 -8.26402,5.27861 -0.0652,1.1266 3.3433,-0.24895 6.12494,-2.47184 z m -118.23892,0.52651 c 0.89868,-1.45409 -14.68145,-3.5476 -18.16748,-2.44117 -4.21205,1.33685 -1.51782,2.3112 7.199,2.60348 5.02735,0.16858 9.43214,0.39478 9.78842,0.5027 0.35629,0.10792 0.88732,-0.19133 1.18006,-0.66501 z m 76.96911,-1.08976 c 0.3445,-0.55742 1.95143,-1.82147 3.57096,-2.809 1.61952,-0.98753 2.39535,-1.79709 1.72407,-1.79901 -1.58573,-0.005 -8.60662,4.00325 -8.61602,4.91836 -0.0111,1.0794 2.61368,0.8341 3.32099,-0.31035 z m 60.40899,-2.0334 c -0.007,-0.64453 -0.27784,-2.16185 -0.60178,-3.37183 -0.50469,-1.88511 -1.00179,-2.11739 -3.47353,-1.62304 -4.18915,0.83783 -5.02746,2.06545 -2.88484,4.2246 2.03596,2.05167 6.98012,2.59884 6.96015,0.77028 z m -45.82346,-2.33988 c 2.99527,-1.554 4.35574,-2.69097 3.43267,-2.86874 -1.31068,-0.25242 -9.15891,4.11677 -9.15891,5.09883 0,0.64265 0.75861,0.34721 5.72624,-2.23009 z M 243.28125,328.125 c 0.93327,-1.03125 2.08732,-1.875 2.56455,-1.875 0.8091,0 8.27618,-4.80764 12.36701,-7.96243 0.99361,-0.76626 1.52786,-1.6719 1.18723,-2.01253 -0.34064,-0.34063 -3.26296,1.21308 -6.49406,3.4527 -3.2311,2.23961 -7.92103,5.46708 -10.42206,7.17214 -3.13598,2.13794 -3.98125,3.10012 -2.72343,3.10012 1.00315,0 2.58749,-0.84375 3.52076,-1.875 z m -8.88615,-2.46833 c 2.05145,-1.35758 3.7299,-2.74939 3.7299,-3.09292 0,-0.34352 1.37109,-1.12879 3.04687,-1.74503 3.97599,-1.46211 19.11227,-16.12057 17.60682,-17.05099 -1.74767,-1.08011 -2.79242,-7.07731 -3.44625,-19.78249 -0.52213,-10.14612 -0.33451,-12.89976 1.34145,-19.6875 1.07167,-4.34031 2.20295,-10.00087 2.51397,-12.57899 0.31101,-2.57813 1.01579,-7.00781 1.56618,-9.84375 0.55039,-2.83594 1.06293,-7.89844 1.13896,-11.25 0.13559,-5.97631 0.0891,-6.09942 -2.41593,-6.38809 -1.94508,-0.22414 -3.62185,0.6924 -7.03125,3.84338 -5.22831,4.83199 -11.62805,8.6549 -16.02479,9.57245 -3.12279,0.65169 -5.22065,3.3203 -3.1522,4.00979 1.8489,0.6163 1.23934,2.66333 -1.1121,3.73471 -1.9762,0.90043 -2.34339,2.00482 -3.36495,10.1207 -0.63067,5.0105 -1.0184,15.99372 -0.86162,24.40718 0.15677,8.41345 -0.0165,15.59873 -0.38506,15.96728 -0.36855,0.36856 -0.67656,-0.77131 -0.68445,-2.53302 -0.008,-1.76172 -0.42331,-3.83594 -0.92315,-4.60938 -1.53846,-2.38059 -1.10318,7.34946 1.01966,22.79301 2.06917,15.05311 2.36327,16.58199 3.18977,16.58199 0.28505,0 2.19672,-1.11075 4.24817,-2.46833 z m 70.66309,-1.28487 c 2.863,-2.16651 3.3279,-2.88787 2.152,-3.33911 -1.49942,-0.57538 -9.08519,3.077 -9.08519,4.37432 0,0.61423 1.57217,1.55357 2.8125,1.68039 0.25781,0.0263 2.11212,-1.19566 4.12069,-2.7156 z m -46.98506,-0.49538 c 4.85568,-2.71389 6.82692,-4.69127 5.49642,-5.51356 -0.80778,-0.49924 -10.44455,6.36553 -10.44455,7.44019 0,0.74762 0.53856,0.53793 4.94813,-1.92663 z M 172.14574,322.5 c 0.19485,0 0.35426,-0.46761 0.35426,-1.03913 0,-1.1919 -4.44738,-0.32724 -6.32288,1.22929 -2.33471,1.93764 -1.10631,2.61791 2.21862,1.22867 1.86766,-0.78036 3.55516,-1.41883 3.75,-1.41883 z m 95.04176,0.9375 c 1.28906,-1.00832 1.78867,-1.84268 1.11024,-1.85415 -1.77548,-0.03 -4.86024,1.76277 -4.86024,2.82463 0,1.36145 1.14892,1.06412 3.75,-0.97048 z m 28.89153,-1.40625 c 1.53197,-1.28906 3.25183,-2.34375 3.82193,-2.34375 0.5701,0 1.03654,-0.42188 1.03654,-0.9375 0,-1.69145 -3.80729,-0.98297 -8.03638,1.49545 -2.28334,1.33812 -3.91559,2.81469 -3.62724,3.28125 0.95529,1.5457 3.9812,0.88075 6.80515,-1.49545 z m -10.10962,-0.52837 c 0.53256,-0.9951 2.64168,-2.66296 4.68694,-3.70637 4.27063,-2.17872 4.69577,-3.45304 1.4258,-4.27376 -1.67611,-0.42067 -3.88265,0.3918 -8.20313,3.02052 -6.82859,4.1547 -7.86749,5.26938 -5.64156,6.05304 3.39027,1.19359 6.76326,0.71658 7.73195,-1.09344 z M 99.375,321.90022 c 0,-0.95046 -3.149419,-3.0876 -4.598428,-3.12041 -0.999103,-0.0226 -0.907416,0.42296 0.379678,1.84519 1.608872,1.77778 4.21875,2.56669 4.21875,1.27522 z m 70.51367,-4.11363 c 2.20967,-1.56113 6.12695,-4.24581 8.70508,-5.96596 6.81123,-4.54452 18.6258,-17.07051 17.89566,-18.97323 -0.32134,-0.8374 -0.0496,-2.1591 0.60379,-2.9371 0.65343,-0.77802 2.45367,-3.6227 4.00055,-6.32154 1.54687,-2.69883 5.45982,-8.86428 8.69544,-13.70099 6.29883,-9.4157 6.45108,-10.15441 3.81154,-18.49312 -1.12606,-3.55738 -0.15095,-3.57704 -13.70286,0.27628 -4.78273,1.35991 -9.11101,2.21599 -9.61842,1.90239 -0.50741,-0.31359 -2.03006,0.301 -3.38368,1.36576 -1.35363,1.06476 -3.14252,1.9453 -3.97533,1.95677 -0.83281,0.0114 -2.53444,0.80514 -3.78143,1.76373 -2.13701,1.64278 -2.30623,2.48968 -2.94621,14.74478 -0.94263,18.05096 -4.64133,33.74214 -10.41259,44.17376 -2.09924,3.7944 -1.04304,3.84799 4.10846,0.20847 z m 8.9206,-0.88931 c 3.41096,-1.77789 14.5609,-12.20978 13.0502,-12.20978 -1.56833,0 -4.35947,2.0006 -4.35947,3.12472 0,0.65107 -2.51101,2.78345 -5.58002,4.73864 -8.20852,5.22942 -10.23376,8.05917 -3.11071,4.34642 z m 99.80237,-1.30605 c 5.89363,-3.18888 7.86219,-5.27873 4.97236,-5.27873 -2.26951,0 -11.709,5.84498 -11.709,7.25028 0,1.63657 0.14857,1.59309 6.73664,-1.97155 z M 103.125,316.32215 c 0,-1.2446 -4.363988,-4.07442 -6.328125,-4.10346 -2.878144,-0.0426 -2.652534,1.48926 0.46875,3.18259 2.616422,1.41942 5.859375,1.92909 5.859375,0.92087 z m 119.72556,-8.10809 c -0.22424,-1.16617 -0.41624,-0.43281 -0.42664,1.62969 -0.0104,2.0625 0.17307,3.01664 0.40772,2.12031 0.23464,-0.89634 0.24316,-2.58384 0.0189,-3.75 z m 46.34237,2.36959 c 2.11214,-1.39773 3.40022,-2.68802 2.86244,-2.86728 -1.33618,-0.44539 -8.61787,3.3486 -8.61787,4.49018 0,1.53184 1.72208,1.04626 5.75543,-1.6229 z M 89.907085,304.11984 C 87.790153,301.86648 84.375,301.0594 84.375,302.8125 c 0,0.51562 0.357324,0.9375 0.794053,0.9375 0.43673,0 1.75681,0.83499 2.93351,1.85554 2.924015,2.53598 4.423159,1.30172 1.804522,-1.4857 z m 190.347695,0.93789 c 0.22818,-0.22818 -0.19284,-1.00796 -0.93558,-1.73286 -1.16427,-1.13628 -1.59712,-0.9848 -3.13963,1.09874 l -1.78917,2.41673 2.72475,-0.68388 c 1.49862,-0.37613 2.91145,-0.87055 3.13963,-1.09873 z m -10.48333,-1.07336 c 0.55898,-1.70234 -3.06011,-1.45112 -4.52512,0.31411 -1.08303,1.30497 -0.90596,1.44772 1.45353,1.17188 1.47773,-0.17276 2.85996,-0.84145 3.07159,-1.48599 z m -66.31072,-11.01562 c 3.05363,-3.07718 3.46579,-4.21875 1.52316,-4.21875 -0.69637,0 -2.69409,2.21484 -4.43938,4.92187 -4.59044,7.12001 -5.04256,8.08447 -2.30727,4.92188 1.33789,-1.54688 3.68846,-4.07813 5.22349,-5.625 z m 70.23969,4.73237 c 0.99354,-0.89914 2.22031,-1.379 2.72618,-1.06636 0.50587,0.31264 2.44071,-0.38432 4.29966,-1.54879 1.85895,-1.16447 4.74117,-2.97444 6.40495,-4.02215 2.29281,-1.44383 3.1002,-2.68943 3.33552,-5.14593 0.32074,-3.34796 -1.49763,-10.29289 -2.69495,-10.29289 -1.10135,0 -1.76183,-3.55358 -2.86578,-15.41888 -0.64208,-6.90102 -1.59485,-12.0438 -2.48218,-13.39803 -1.18351,-1.80627 -1.344,-4.32087 -0.9007,-14.11237 0.29667,-6.55295 1.0175,-13.39103 1.60182,-15.19572 3.01861,-9.32295 2.71512,-39.44534 -0.46039,-45.69533 -2.72656,-5.36639 -8.18765,-7.59601 -10.82414,-4.41924 -0.76508,0.92186 -2.08409,1.26801 -3.63042,0.95272 -2.15369,-0.43913 -3.03923,0.33894 -7.81936,6.87027 -2.96485,4.05101 -5.39063,7.5822 -5.39063,7.84708 0,0.26488 1.83507,0.75679 4.07793,1.09312 3.94341,0.59136 9.98457,5.0248 9.98457,7.32741 0,0.52928 0.61534,0.43037 1.40625,-0.22603 0.77344,-0.6419 1.40625,-1.60956 1.40625,-2.15034 0,-0.5408 0.61948,-1.6678 1.37663,-2.50443 1.94943,-2.1541 2.03471,-6.55271 0.19513,-10.0643 -1.88697,-3.60202 -2.01927,-5.90593 -0.33914,-5.90593 1.59156,0 4.39238,5.87188 4.39238,9.20858 0,1.42035 -0.83998,4.23004 -1.86663,6.24374 -1.02664,2.01371 -2.12827,5.05603 -2.44808,6.76073 -0.32652,1.74053 -1.15227,3.09945 -1.88337,3.09945 -1.67635,0 -1.65315,1.40493 0.0666,4.0295 2.04888,3.12699 2.17609,14.67911 0.17774,16.14034 -0.85042,0.62184 -1.5462,1.44086 -1.5462,1.82004 0,0.37918 -0.82412,1.8468 -1.83138,3.26135 -1.77184,2.48832 -6.60612,27.00869 -6.60612,33.50745 0,1.49731 -0.67139,5.2368 -1.49197,8.30998 -2.56952,9.62311 -1.73259,24.3628 2.04067,35.93972 0.59169,1.8154 9.23342,0.88721 11.58922,-1.24476 z M 75.9375,285.05533 c 0,-0.48519 -0.421875,-1.14291 -0.9375,-1.46158 -0.515625,-0.31867 -0.9375,0.0783 -0.9375,0.88217 0,0.80387 0.421875,1.46158 0.9375,1.46158 0.515625,0 0.9375,-0.39698 0.9375,-0.88217 z m 133.49683,-6.91737 c 5.68523,-7.5539 7.80496,-11.54861 6.68336,-12.59505 -0.41216,-0.38454 -0.93756,-0.1723 -1.16755,0.47164 -0.23,0.64394 -3.12536,5.2483 -6.43416,10.23193 -3.30879,4.98362 -6.01598,9.22775 -6.01598,9.43141 0,1.09782 2.38573,-1.49627 6.93433,-7.53993 z m 10.38266,-18.4063 c -0.20489,-1.31336 -0.62945,-4.81369 -0.94347,-7.77854 -0.40029,-3.7794 -0.97109,-5.39062 -1.90973,-5.39062 -1.69511,0 -1.68402,1.37649 0.0573,7.11663 0.76785,2.53116 1.40712,6.07868 1.4206,7.88337 0.0176,2.36392 0.2654,2.90046 0.88616,1.91916 0.47392,-0.74916 0.69403,-2.43666 0.48913,-3.75 z m -47.39511,-1.56688 c 0.21484,-0.19375 0.14117,-0.60174 -0.16373,-0.90663 -0.80792,-0.80792 -4.44565,0.5162 -4.44565,1.61821 0,0.82318 3.5081,0.28162 4.60938,-0.71158 z m 9.92187,-2.22728 c 1.18185,-0.50786 1.35514,-0.80572 0.46875,-0.80572 -0.77344,0 -2.25,0.36257 -3.28125,0.80572 -1.18185,0.50786 -1.35514,0.80572 -0.46875,0.80572 0.77344,0 2.25,-0.36257 3.28125,-0.80572 z m 41.60468,-3.04688 c 2.04054,-5.53944 2.09146,-7.26562 0.21434,-7.26562 -1.37881,0 -1.96013,0.88586 -2.43821,3.71559 -0.87535,5.18119 0.69789,7.6926 2.22387,3.55003 z M 136.875,252.77104 c 0,-0.19467 -0.73828,-0.93296 -1.64063,-1.64063 -1.48693,-1.16613 -1.52009,-1.13297 -0.35396,0.35396 1.22472,1.56165 1.99459,2.05827 1.99459,1.28667 z m -4.70631,-4.82495 c -0.65223,-0.7859 -1.37895,-1.23584 -1.61492,-0.99987 -0.65014,0.65015 0.67083,2.42878 1.80385,2.42878 0.62165,0 0.55053,-0.53792 -0.18893,-1.42891 z M 66.312653,221.9779 c -0.198043,-2.20503 -0.362863,-0.63415 -0.366269,3.49085 -0.0034,4.125 0.15863,5.92912 0.360078,4.00915 0.201447,-1.91996 0.204234,-5.29496 0.0062,-7.5 z m 104.423577,-0.34652 c 0.31899,-0.18691 0.8424,-1.93121 1.16313,-3.87623 0.32074,-1.94502 1.19265,-4.69226 1.9376,-6.10498 0.74495,-1.41273 1.44876,-3.31117 1.56401,-4.21875 0.32262,-2.54047 -1.09712,-7.06969 -2.86823,-9.15017 -0.8779,-1.03125 -2.72097,-3.84856 -4.09572,-6.26069 -3.20689,-5.62686 -3.2436,-10.87966 -0.14059,-20.12334 1.29741,-3.86493 2.10827,-7.43273 1.80189,-7.92844 -0.30636,-0.49572 -1.99625,-0.63131 -3.75528,-0.30131 -3.76777,0.70683 -4.97921,-1.00169 -3.143,-4.43268 1.11604,-2.08535 1.1825,-2.09622 1.8813,-0.30763 0.7093,1.81551 0.72574,1.81411 0.79026,-0.0678 0.0363,-1.05704 -0.44035,-2.42813 -1.0591,-3.04688 -1.36019,-1.36019 -7.90697,-1.50098 -8.71875,-0.1875 -0.81521,1.31903 -5.4523,1.16761 -7.17702,-0.23437 -0.7929,-0.64454 -2.4195,-2.81054 -3.61466,-4.81334 l -2.17303,-3.64145 -1.79897,2.46958 c -0.98942,1.35827 -2.1645,2.46958 -2.61126,2.46958 -0.44678,0 -2.68762,-1.26563 -4.97964,-2.8125 -7.3581,-4.96592 -7.28424,-3.20886 0.19129,4.55045 6.92557,7.18847 8.64182,12.57374 9.15632,28.7308 0.34666,10.88627 0.47966,11.50006 4.11385,18.98437 2.0656,4.25391 4.15189,7.73438 4.63623,7.73438 1.61377,0 6.75762,6.04089 8.64099,10.1479 1.85357,4.04203 1.87081,4.05223 5.76876,3.40749 2.1503,-0.35567 4.17063,-0.7996 4.48962,-0.98651 z m 14.76469,-3.89701 c 3.06174,-3.1609 8.56696,-9.88871 15.12408,-18.48276 3.43387,-4.50058 18.61021,-21.86706 19.69552,-22.53781 2.48708,-1.53711 -0.16311,-2.13331 -12.89865,-2.90177 -19.57359,-1.18106 -25.41778,-1.02336 -29.97214,0.80883 -2.17609,0.87542 -4.55961,1.36025 -5.29672,1.07739 -0.91227,-0.35007 -1.69307,0.55497 -2.44537,2.83448 -1.87979,5.69582 0.31367,11.93253 6.78073,19.27977 3.54094,4.02288 3.69016,4.44613 3.21399,9.11621 -0.27464,2.69362 -1.16377,5.84607 -1.97585,7.00548 -1.52024,2.17045 -1.95509,5.58724 -0.85151,6.69081 1.66127,1.66128 5.44501,0.39331 8.62592,-2.89062 z m 15.30075,1.39083 c 1.90186,-1.15167 6.45409,-4.1416 10.11607,-6.64429 5.81484,-3.97402 7.06893,-4.47329 9.90145,-3.9419 1.78382,0.33465 3.24331,0.24629 3.24331,-0.19634 0,-0.44264 1.72826,-3.67029 3.84058,-7.17257 2.11232,-3.50227 4.50425,-8.32719 5.3154,-10.72206 1.06855,-3.15482 4.05709,-7.1305 10.84887,-14.43242 5.15574,-5.54296 9.83021,-10.09215 10.38773,-10.10931 0.55752,-0.0172 2.02039,-0.86962 3.25082,-1.89437 2.11226,-1.75916 2.14892,-1.96067 0.65666,-3.6096 -1.23432,-1.3639 -2.23767,-1.59141 -4.58091,-1.03867 -3.27112,0.7716 -13.41859,6.3167 -18.17223,9.93025 -1.64137,1.24772 -3.32887,2.28657 -3.75,2.30855 -1.80226,0.0941 -8.83269,7.33011 -10.8644,11.18212 -1.23951,2.35002 -3.0778,4.409 -4.1851,4.6875 -1.08608,0.27316 -2.93159,1.76228 -4.10115,3.30916 -1.16955,1.54687 -3.83951,4.7621 -5.93324,7.14493 -2.09372,2.38284 -4.86147,5.90572 -6.15053,7.82861 -1.28906,1.9229 -4.36082,5.79309 -6.82612,8.60041 -2.46529,2.80733 -4.23337,5.5071 -3.92904,5.99952 1.00311,1.62305 7.41135,0.90232 10.93183,-1.22952 z m 24.60666,-47.4436 c 2.48036,-2.2503 9.95698,-6.52495 20.93194,-11.96753 8.01587,-3.97516 8.90116,-4.21654 11.50658,-3.13734 1.55242,0.64303 3.20819,1.85211 3.67948,2.68684 0.61733,1.09337 1.14453,1.23326 1.88572,0.50037 0.7457,-0.73736 0.47,-2.28529 -1.00189,-5.625 -1.1169,-2.53423 -2.59598,-8.80651 -3.28683,-13.9384 -1.68401,-12.50926 -1.59774,-12.35469 -5.31327,-9.52072 -5.51248,4.20458 -11.02779,6.15091 -17.56006,6.19691 -3.35156,0.0236 -9.67721,0.83106 -14.05701,1.79439 -7.83343,1.72294 -8.05997,1.72161 -13.89679,-0.0812 -4.41732,-1.36437 -7.21375,-1.67272 -10.9435,-1.20673 -5.64417,0.7052 -9.56962,-0.25497 -17.3527,-4.24447 -8.62576,-4.42146 -17.256,-6.65801 -23.05949,-5.97592 -2.78603,0.32744 -5.06551,0.96952 -5.06551,1.42686 0,0.45733 1.97277,1.98127 4.38394,3.38655 5.77774,3.36737 11.04105,8.06697 13.51168,12.06452 1.1893,1.92434 3.70704,4.03739 6.21559,5.21655 2.94527,1.38445 4.50835,2.81913 5.18446,4.75859 0.93127,2.67147 1.13757,2.75649 5.44946,2.24581 2.46485,-0.29192 7.26577,-1.83251 10.66874,-3.42352 7.46819,-3.49165 12.21923,-4.64371 11.60972,-2.81518 -0.51896,1.55689 -11.49739,6.22884 -19.33118,8.22652 -4.5693,1.16521 -6.51683,1.27257 -8.6282,0.47562 -2.4321,-0.91802 -2.88783,-0.78365 -4.21575,1.24303 -0.81889,1.24977 -1.26523,2.63417 -0.9919,3.07646 1.11592,1.80559 17.59989,-2.74768 31.6602,-8.74532 1.91704,-0.81773 4.13188,-1.48679 4.92188,-1.48679 1.96623,0 1.81685,1.80872 -0.20426,2.47337 -0.90235,0.29674 -5.23595,1.971 -9.63024,3.72058 -4.39429,1.74957 -8.69361,3.18104 -9.55404,3.18104 -0.86045,0 -1.84181,0.44878 -2.18081,0.99729 -0.68099,1.10188 4.85088,0.34739 8.94321,-1.21974 5.73056,-2.19449 10.3125,-3.28326 10.3125,-2.45047 0,0.49148 -1.58203,1.52039 -3.51563,2.28648 -8.71168,3.45157 -8.71732,3.45951 -3.04687,4.28321 2.83594,0.41194 9.79687,0.33795 15.46875,-0.16443 5.67187,-0.50239 10.62891,-0.91487 11.01562,-0.91663 0.38672,-0.002 0.70313,0.6296 0.70313,1.40304 0,0.85174 -0.87021,1.40625 -2.20686,1.40625 -2.28495,0 -7.48648,4.05667 -6.48527,5.05786 0.87796,0.87798 1.39075,0.70258 3.47546,-1.18876 z m -3.29895,-2.58297 c 0.21484,-0.19175 -1.78907,-0.34863 -4.45313,-0.34863 -2.79061,0 -4.84375,0.42173 -4.84375,0.99494 0,0.90283 8.19983,0.33278 9.29688,-0.64631 z m -33.27981,0.0198 c 3.20511,-1.22992 1.18675,-1.84551 -4.8452,-1.47775 -8.75294,0.53363 -10.8264,1.9821 -2.88917,2.01829 3.4383,0.0157 6.91877,-0.22756 7.73437,-0.54054 z m -10.9385,-15.13404 c 0.22886,-0.68735 -0.41734,-1.17187 -1.56295,-1.17187 -1.15156,0 -1.95312,0.60533 -1.95312,1.47499 0,1.72301 2.92541,1.47081 3.51607,-0.30312 z m 154.46239,-14.3411 c 0.58045,-2.64275 -0.76721,-6.51827 -2.26663,-6.51827 -0.43158,0 -1.04863,1.65062 -1.37123,3.66804 -0.32261,2.01743 -0.82287,4.28392 -1.11173,5.03665 -0.39783,1.03672 0.0436,1.25988 1.82028,0.92024 1.64594,-0.31465 2.51959,-1.24118 2.92931,-3.10666 z M 90.111583,133.41685 c 2.494043,-1.90198 4.357348,-3.63543 4.140673,-3.85209 -0.563609,-0.56362 -9.877256,5.59437 -9.877256,6.53062 0,1.37127 1.099073,0.85808 5.736583,-2.67853 z m 234.162967,-5.55503 c -2.09788,-2.23308 -6.46205,-3.09491 -6.46205,-1.27612 0,0.52839 1.05987,1.36367 2.35527,1.85618 1.2954,0.49251 2.73764,1.85316 3.20499,3.02367 0.46733,1.17051 1.18346,2.97195 1.59138,4.0032 0.59398,1.50159 0.80841,1.15357 1.07674,-1.74756 0.25576,-2.76528 -0.16222,-4.15187 -1.76633,-5.85937 z M 87.65625,127.5 c 0.318674,-0.51563 0.132634,-0.9375 -0.413422,-0.9375 -0.546055,0 -0.992828,0.42187 -0.992828,0.9375 0,0.51562 0.186039,0.9375 0.413422,0.9375 0.227382,0 0.674154,-0.42188 0.992828,-0.9375 z m 91.93389,-21.67639 c 1.89375,-3.66211 1.10023,-8.82566 -1.57645,-10.258179 -1.04809,-0.560925 -2.71744,-1.831674 -3.70965,-2.823894 -2.19847,-2.198469 -3.82532,-2.261343 -7.62817,-0.294812 -1.87919,0.971764 -4.19963,1.337391 -6.51595,1.02671 -3.09624,-0.415295 -3.59742,-0.230293 -3.59742,1.327943 0,2.288138 7.10169,9.451972 11.85647,11.960202 1.98676,1.04805 4.97254,1.9242 6.63508,1.94698 2.45662,0.0337 3.30624,-0.50669 4.53609,-2.88495 z m 27.05049,-41.162152 c 2.59218,-2.64156 2.62874,-2.786458 0.70312,-2.786458 -1.18055,0 -2.03125,0.588942 -2.03125,1.40625 0,0.773437 -0.63281,1.40625 -1.40625,1.40625 -0.77344,0 -1.40625,0.632812 -1.40625,1.40625 0,2.064876 1.07308,1.693685 4.14063,-1.432292 z M 119.0625,26.893524 c 0,-0.48021 -0.63281,-0.34792 -1.40625,0.293976 -0.77344,0.641896 -1.39283,1.853708 -1.37644,2.692917 0.025,1.281863 0.2499,1.234857 1.40625,-0.293976 0.75704,-1.000895 1.37644,-2.212708 1.37644,-2.692917 z M 15.233017,311.01562 c 0.27907,-0.84013 3.88397,-1.24592 12.734374,-1.43346 10.566637,-0.22389 12.345109,-0.0551 12.345109,1.17187 0,1.21593 -1.932493,1.43347 -12.734375,1.43347 -9.770109,0 -12.643763,-0.27278 -12.345108,-1.17188 z m 19.220108,-4.13651 c 0.644531,-0.26007 1.699219,-0.26007 2.34375,0 0.644531,0.26007 0.117187,0.47287 -1.171875,0.47287 -1.289063,0 -1.816406,-0.2128 -1.171875,-0.47287 z M 9.8556375,305.78952 c -4.2844357,-0.34869 -6.4219071,-1.7381 -5.6736578,-3.68801 0.28452,-0.74144 -0.5224068,-2.58371 -1.7931707,-4.09393 -2.26135937,-2.68748 -2.32081977,-5.17468 -0.1582033,-6.6176 1.4719065,-0.98206 2.4568943,0.0418 2.4568943,2.55373 0,1.64007 0.6508178,2.43391 2.34375,2.85881 1.3444835,0.33745 2.34375,1.26438 2.34375,2.17411 0,2.98405 2.083733,3.83587 9.383316,3.83587 4.820727,0 7.72329,0.44623 8.953125,1.37644 1.000895,0.75703 1.397934,1.43042 0.882309,1.4964 -2.379197,0.30446 -15.388541,0.37679 -18.7381125,0.10418 z M 145.3125,271.92271 c 0,-1.65459 6.58639,-6.02382 7.5811,-5.02911 0.61783,0.61783 -0.3383,1.77285 -2.83563,3.42552 -4.11908,2.72586 -4.74547,2.93754 -4.74547,1.60359 z m 110.625,-65.20396 c 0,-1.0625 1.14583,-1.40625 4.6875,-1.40625 4.58189,0 6.16419,1.10773 3.20457,2.24345 -2.98957,1.14721 -7.89207,0.62715 -7.89207,-0.8372 z M 290.625,131.5252 c -9.99614,-0.30657 -13.125,-0.82341 -13.125,-2.16806 0,-0.52855 3.36527,-0.91964 7.91342,-0.91964 4.35238,0 8.17416,-0.42188 8.49283,-0.9375 0.75586,-1.22301 6.74828,-1.2163 7.50518,0.008 0.69207,1.11978 -0.31619,4.76549 -1.24023,4.48454 -0.35197,-0.10706 -4.64776,-0.31754 -9.5462,-0.46778 z M 165.23437,74.539811 c -1.67578,-0.728363 -3.04687,-1.9739 -3.04687,-2.76786 0,-0.793959 -0.85456,-1.974481 -1.89902,-2.623382 -1.04446,-0.648901 -2.32768,-2.766816 -2.8516,-4.70648 -0.73384,-2.716785 -1.75095,-3.908324 -4.42911,-5.188637 -2.39456,-1.144736 -3.38559,-2.185105 -3.18437,-3.342872 0.18456,-1.061829 -0.42694,-1.868948 -1.66038,-2.191497 -1.53679,-0.401882 -1.72427,-0.785642 -0.88049,-1.802342 1.45947,-1.758546 2.45009,-1.625454 4.34125,0.583259 2.20539,2.575718 6.89836,2.397262 11.05011,-0.420196 3.98818,-2.706444 11.07382,-4.000554 14.46711,-2.642247 1.31464,0.526239 3.12853,1.264766 4.03087,1.641172 2.31622,0.966193 2.03463,-0.461674 -0.72353,-3.66884 -2.3892,-2.778138 -2.00272,-4.822513 0.71455,-3.7798 2.30725,0.885373 5.69852,9.697275 6.11959,15.901161 0.32161,4.738461 0.0364,6.131142 -1.80973,8.836422 -4.34638,6.369175 -13.41907,9.136091 -20.23838,6.172139 z m 7.7468,-2.357033 c 2.17016,-0.825095 2.39948,-1.300795 1.84469,-3.826724 -0.49744,-2.264822 -0.176,-3.37153 1.49621,-5.151528 1.17137,-1.246865 3.11092,-2.267026 4.3101,-2.267026 4.99757,0 -0.136,-6.022941 -6.55258,-7.687787 -4.30271,-1.116381 -4.76273,-1.040611 -9.82122,1.617647 -6.45424,3.391731 -7.52454,6.032077 -3.96629,9.784505 1.30029,1.371255 3.48626,3.838678 4.8577,5.483163 2.66826,3.199474 3.93259,3.530071 7.83139,2.04775 z m 11.54672,-7.343481 c 0.27546,-1.935977 0.0966,-2.059065 -1.64062,-1.129313 -2.39306,1.280725 -2.63051,4.057244 -0.30915,3.614805 0.90235,-0.171981 1.77975,-1.290453 1.94977,-2.485492 z M 115.5,59.8125 c -1.31736,-1.31736 -1.48816,-4.164897 -0.29408,-4.902878 0.457,-0.282443 1.04195,0.220003 1.29989,1.116547 0.25793,0.896544 0.7729,2.368362 1.14438,3.270706 0.77383,1.879662 -0.48442,2.181395 -2.15019,0.515625 z m 74.36782,-15.703444 c -1.82454,-3.528287 -1.80021,-3.796556 0.34438,-3.796556 1.85772,0 2.9128,1.725684 2.9128,4.764175 0,2.664975 -1.62892,2.181064 -3.25718,-0.967619 z m -7.40824,-5.79033 c -1.59061,-1.857697 -2.38191,-1.963762 -11.59393,-1.55406 -8.33623,0.370752 -9.60825,0.247362 -8.11061,-0.786752 1.98431,-1.370153 3.083,-2.393507 4.86005,-4.526763 1.31323,-1.576474 7.69741,-2.024724 7.69741,-0.540456 0,0.500883 -1.37109,1.306584 -3.04688,1.790449 -2.66954,0.770801 -2.2579,0.890224 3.32386,0.964305 5.45064,0.07234 6.70309,0.416897 8.67188,2.385687 1.26562,1.265625 2.30114,2.742187 2.30114,3.28125 0,1.656932 -2.30359,1.087813 -4.10292,-1.01366 z M 183.75,12.355983 c -0.77344,-0.350478 -3.21196,-1.810726 -5.41895,-3.2449956 -3.7643,-2.4463412 -6.98343,-3.3735328 -18.50931,-5.3311681 -2.59024,-0.4399427 -9.1293,-0.452002 -14.53125,-0.026798 -5.40196,0.4252036 -9.96642,0.6295783 -10.14324,0.4541661 -0.17682,-0.1754123 0.962,-0.9826504 2.53071,-1.7938625 4.27244,-2.20936728 21.41631,-2.25467781 28.717,-0.075898 3.08755,0.9214306 6.25161,1.9787005 7.03125,2.3494888 11.22721,5.3395078 16.19539,8.5349778 13.0167,8.3721928 -0.70766,-0.03624 -1.91947,-0.352648 -2.69291,-0.703125 z"
     id="path3386"
     inkscape:connector-curvature="0" />
</svg>
